:SAMPLES-PER-SECOND 30
:FULLY-SPECIFIED
:DEGREES
949
root  -37.7726 36.5352 -1.31642 40.2701 -83.8916 -7.06415
RightUpLeg  -74.1666 -18.0552 19.1611
RightLeg  39.7347 3.58557 2.90498
RightFoot  1.1432 1.0103 -9.13889
RightToes  0.00048216 0.542163 -0.142577
Spine  73.0696 -4.47653 7.19425
Spine1  -0.25767 0.75516 -3.18094
HEad  -39.5782 -4.62248 1.63764
LeftShoulder1  6.90229 -28.5216 -14.4579
LeftArm  -74.9055 -56.9514 23.7557
LeftForeArm  -7.91746 -15.9939 -1.35011
LeftHand  -0.25398 0.0180481 5.50724
RightShoulder  3.07216 14.2807 9.98382
RightArm  -66.5074 53.8293 -19.9862
RightForeArm  -25.6107 15.2156 4.84772
RightHand  0.54913 7.85681 4.32065
LeftUpLeg  -72.0936 14.3198 -13.0982
LeftLeg  41.616 -1.80046 -1.32234
LeftFoot  -2.78177 -0.490421 6.76981
LeftToes  1.06244e-005 4.65855e-005 -8.18506e-006
950
root  -38.2202 36.4473 -1.53438 40.8375 -83.7559 -5.88019
RightUpLeg  -75.9046 -17.3321 19.7715
RightLeg  41.0034 2.99642 2.49542
RightFoot  0.396405 1.03329 -9.99487
RightToes  0.00048216 0.542163 -0.142577
Spine  74.2749 -4.2079 6.80285
Spine1  -1.2458 0.812144 -3.0753
HEad  -40.0029 -4.5341 1.80801
LeftShoulder1  6.12618 -28.2469 -12.0051
LeftArm  -79.3581 -56.1272 25.6607
LeftForeArm  -6.89885 -16.6457 -1.09273
LeftHand  -0.25398 0.0180481 5.50724
RightShoulder  2.68928 13.5022 8.36484
RightArm  -70.9298 54.1375 -21.1659
RightForeArm  -23.1898 15.1165 4.16492
RightHand  0.630044 8.60812 4.70873
LeftUpLeg  -73.6692 13.6103 -12.461
LeftLeg  42.5947 -1.09281 -0.680983
LeftFoot  -3.54003 -0.376463 5.82657
LeftToes  1.06244e-005 4.65855e-005 -8.18506e-006
951
root  -38.6275 36.3796 -1.7171 41.1334 -83.5814 -4.65192
RightUpLeg  -77.2126 -16.6738 20.1109
RightLeg  41.9248 2.22515 1.84253
RightFoot  -0.834792 0.967861 -10.541
RightToes  0.00048216 0.542163 -0.142577
Spine  75.2129 -4.26948 6.49867
Spine1  -1.8588 0.760599 -3.51552
HEad  -40.5738 -4.40133 2.04436
LeftShoulder1  5.60499 -28.0643 -10.3173
LeftArm  -84.6523 -55.1492 28.2194
LeftForeArm  -4.93095 -17.4188 -1.03462
LeftHand  -0.25398 0.0180481 5.50724
RightShoulder  2.4287 12.8835 7.25702
RightArm  -74.737 54.5684 -22.7681
RightForeArm  -20.912 14.7039 3.51113
RightHand  0.75562 9.16893 5.492
LeftUpLeg  -74.858 13.165 -12.0821
LeftLeg  43.1999 -0.749279 -0.353693
LeftFoot  -4.4882 -0.276728 5.07409
LeftToes  1.06244e-005 4.65855e-005 -8.18506e-006
952
root  -39.0106 36.3408 -1.872 40.9424 -83.4834 -3.21045
RightUpLeg  -78.0738 -16.1012 20.1887
RightLeg  42.5535 1.70442 1.37354
RightFoot  -2.19318 0.81436 -10.3203
RightToes  0.00048216 0.542163 -0.142577
Spine  75.9905 -4.46446 6.20602
Spine1  -2.06244 0.600421 -4.19256
HEad  -40.9254 -4.24902 2.27046
LeftShoulder1  5.14424 -27.7492 -8.89054
LeftArm  -91.1031 -54.0689 30.0948
LeftForeArm  -0.850829 -18.7422 -1.49787
LeftHand  -0.25398 0.0180481 5.50724
RightShoulder  2.23136 12.6742 6.1009
RightArm  -77.2966 54.4547 -23.638
RightForeArm  -19.1207 14.6869 3.05244
RightHand  0.825914 9.35028 5.96537
LeftUpLeg  -75.6265 12.9438 -11.9139
LeftLeg  43.4484 -0.584157 -0.189967
LeftFoot  -5.28349 -0.214118 4.64984
LeftToes  1.06244e-005 4.65855e-005 -8.18506e-006
953
root  -39.3692 36.32 -2.00627 39.1841 -83.4784 -0.509399
RightUpLeg  -78.5987 -15.601 19.8597
RightLeg  43.1572 1.25438 0.951855
RightFoot  -3.24376 0.669703 -9.73784
RightToes  0.00048216 0.542163 -0.142577
Spine  76.5504 -4.5625 5.86885
Spine1  -1.88191 0.367913 -4.56496
HEad  -41.1315 -3.94235 2.43972
LeftShoulder1  4.62651 -26.9768 -7.48396
LeftArm  -97.4178 -53.2856 30.8177
LeftForeArm  4.82371 -20.486 -2.61917
LeftHand  -0.25398 0.0180481 5.50724
RightShoulder  2.01256 12.4865 4.7396
RightArm  -79.0491 53.8531 -22.8358
RightForeArm  -18.114 16.325 3.3184
RightHand  0.661239 8.77485 4.88683
LeftUpLeg  -76.1134 12.8156 -11.9467
LeftLeg  43.6878 -0.433915 -0.0394317
LeftFoot  -5.76572 -0.173128 4.2677
LeftToes  1.06244e-005 4.65855e-005 -8.18506e-006
954
root  -39.6982 36.3189 -2.11869 36.9857 -83.5167 2.37585
RightUpLeg  -78.7918 -15.0716 19.2032
RightLeg  43.6371 0.615353 0.317522
RightFoot  -4.14399 0.552239 -9.19719
RightToes  0.00048216 0.542163 -0.142577
Spine  76.8477 -4.54416 5.59539
Spine1  -1.46759 0.19328 -4.65461
HEad  -41.5722 -3.33167 2.6029
LeftShoulder1  4.22651 -26.097 -6.49909
LeftArm  -100.97 -52.8725 31.4131
LeftForeArm  9.41614 -21.9486 -3.65302
LeftHand  -0.25398 0.0180481 5.50724
RightShoulder  1.85999 12.1299 3.96662
RightArm  -80.6361 53.3035 -21.3432
RightForeArm  -17.6404 19.5222 4.4727
RightHand  0.267236 7.83575 1.86813
LeftUpLeg  -76.3843 12.8231 -12.0791
LeftLeg  43.9536 -0.37073 0.0230711
LeftFoot  -6.17912 -0.129647 3.6988
LeftToes  1.06244e-005 4.65855e-005 -8.18506e-006
955
root  -40.0026 36.3472 -2.20324 35.9072 -83.5594 4.0249
RightUpLeg  -78.7318 -14.5629 18.6263
RightLeg  43.7577 0.0311929 -0.280116
RightFoot  -5.0045 0.455314 -8.812
RightToes  0.00048216 0.542163 -0.142577
Spine  76.9169 -4.48291 5.50468
Spine1  -1.01533 0.18303 -4.6953
HEad  -42.0864 -2.78745 2.6944
LeftShoulder1  4.02618 -25.6431 -5.98583
LeftArm  -101.719 -52.5417 32.0714
LeftForeArm  11.9891 -22.9409 -4.15418
LeftHand  -0.25398 0.0180481 5.50724
RightShoulder  1.86797 11.9396 4.18884
RightArm  -81.5794 53.0593 -20.4282
RightForeArm  -17.6725 22.7635 5.65199
RightHand  -0.18082 7.37909 -2.08565
LeftUpLeg  -76.4387 12.9467 -12.1846
LeftLeg  43.9732 -0.398989 -0.00641389
LeftFoot  -6.70673 -0.0867927 3.14323
LeftToes  1.06244e-005 4.65855e-005 -8.18506e-006
956
root  -40.283 36.4015 -2.25625 35.3827 -83.5871 5.05835
RightUpLeg  -78.6139 -14.3005 18.3836
RightLeg  43.63 -0.193289 -0.509449
RightFoot  -5.58595 0.395244 -8.59052
RightToes  0.00048216 0.542163 -0.142577
Spine  76.8095 -4.4374 5.55467
Spine1  -0.550033 0.269494 -4.69552
HEad  -42.1766 -2.8544 2.61592
LeftShoulder1  3.8633 -25.484 -5.44431
LeftArm  -101.596 -52.2902 31.9061
LeftForeArm  13.5245 -23.8488 -4.39938
LeftHand  -0.25398 0.0180481 5.50724
RightShoulder  1.95721 12.0597 4.73079
RightArm  -82.435 53.0044 -19.9775
RightForeArm  -17.4457 24.9627 6.19627
RightHand  -0.570608 7.47606 -5.59965
LeftUpLeg  -76.3007 12.9923 -12.21
LeftLeg  43.7051 -0.374069 0.0210302
LeftFoot  -7.21329 -0.0577462 2.80937
LeftToes  1.06244e-005 4.65855e-005 -8.18506e-006
